<?xml version="1.0" standalone="no"?>
<!DOCTYPE svg PUBLIC "-//W3C//DTD SVG 20010904//EN"
 "http://www.w3.org/TR/2001/REC-SVG-20010904/DTD/svg10.dtd">
<svg version="1.0" xmlns="http://www.w3.org/2000/svg"
 width="529.000000pt" height="139.000000pt" viewBox="0 0 529.000000 139.000000"
 preserveAspectRatio="xMidYMid meet">

<g transform="translate(0.000000,139.000000) scale(0.100000,-0.100000)"
fill="#000000" stroke="none">
<path d="M20 1335 l0 -35 2625 0 2625 0 0 35 0 35 -2625 0 -2625 0 0 -35z"/>
<path d="M837 1190 c-228 -17 -457 -61 -507 -99 -14 -10 -25 -28 -25 -41 0
-33 39 -57 130 -80 292 -75 878 -92 1285 -39 118 15 280 56 310 78 14 10 25
28 25 41 0 13 -11 31 -25 41 -36 26 -203 65 -360 84 -159 19 -655 28 -833 15z"/>
<path d="M302 947 c7 -49 144 -93 383 -121 72 -9 151 -16 176 -16 44 0 47 -2
72 -47 30 -57 51 -163 42 -218 -20 -127 -132 -246 -288 -304 -68 -25 -138 -27
-197 -6 -65 23 -58 12 12 -21 55 -25 74 -29 153 -29 128 1 244 47 341 137 118
109 173 290 130 431 l-14 47 55 0 55 0 -8 -37 c-5 -21 -9 -85 -8 -143 0 -97 3
-111 32 -173 54 -116 159 -198 316 -246 92 -28 178 -27 262 3 79 29 108 51 39
30 -68 -20 -130 -17 -205 9 -120 43 -213 120 -257 215 -23 48 -25 64 -21 141
3 70 10 99 31 143 31 63 26 61 182 73 264 20 475 80 475 134 0 16 -7 14 -57
-10 -276 -134 -1415 -130 -1661 6 l-43 24 3 -22z"/>
<path d="M1980 450 l0 -230 40 0 40 0 0 230 0 230 -40 0 -40 0 0 -230z"/>
<path d="M2160 451 l0 -231 35 0 35 0 0 160 c0 88 3 160 8 160 4 0 38 -59 75
-130 62 -118 71 -130 95 -130 25 0 34 13 97 131 l70 131 3 -161 2 -161 35 0
35 0 0 230 0 230 -39 0 -40 0 -81 -155 -82 -156 -48 93 c-110 211 -111 213
-158 216 l-42 3 0 -230z"/>
<path d="M2750 450 l0 -230 108 0 c161 1 222 35 222 128 0 55 -11 76 -49 92
l-30 12 34 33 c45 42 49 97 9 144 -33 39 -77 51 -196 51 l-98 0 0 -230z m218
154 c29 -20 30 -76 2 -104 -16 -16 -33 -20 -80 -20 l-60 0 0 70 0 70 58 0 c36
0 66 -6 80 -16z m17 -204 c24 -27 22 -70 -5 -92 -16 -13 -39 -18 -86 -18 l-64
0 0 65 0 65 68 0 c56 0 72 -4 87 -20z"/>
<path d="M3160 450 l0 -230 140 0 140 0 0 35 0 35 -100 0 -100 0 0 65 0 65 80
0 80 0 0 30 0 30 -80 0 -80 0 0 65 0 65 100 0 100 0 0 35 0 35 -140 0 -140 0
0 -230z"/>
<path d="M3530 451 l0 -231 40 0 40 0 0 90 0 90 28 0 c24 0 37 -12 88 -87 57
-85 60 -88 102 -91 23 -2 42 0 42 3 0 4 -28 48 -63 99 l-63 93 27 15 c88 51
84 182 -7 228 -18 8 -69 16 -131 18 l-103 4 0 -231z m197 154 c44 -31 37 -111
-13 -134 -14 -6 -43 -11 -64 -11 l-40 0 0 80 0 80 48 0 c26 0 57 -7 69 -15z"/>
<path d="M3940 450 l0 -230 35 0 34 0 3 156 3 155 120 -153 c106 -135 124
-153 153 -156 l32 -3 0 230 0 231 -35 0 -35 0 0 -155 c0 -85 -3 -155 -7 -155
-5 0 -62 70 -128 155 -103 133 -124 155 -147 155 l-28 0 0 -230z"/>
<path d="M4410 450 l0 -230 145 0 145 0 0 35 0 35 -105 0 -105 0 0 65 0 65 80
0 80 0 0 30 0 30 -80 0 -80 0 0 65 0 65 105 0 105 0 0 35 0 35 -145 0 -145 0
0 -230z"/>
<path d="M4740 645 l0 -35 70 0 70 0 0 -195 0 -195 40 0 40 0 0 195 0 195 65
0 65 0 0 35 0 35 -175 0 -175 0 0 -35z"/>
<path d="M20 45 l0 -35 2630 0 2630 0 0 35 0 35 -2630 0 -2630 0 0 -35z"/>
</g>
</svg>
